<?xml version="1.0" standalone="no"?>
<!DOCTYPE svg PUBLIC "-//W3C//DTD SVG 20010904//EN"
 "http://www.w3.org/TR/2001/REC-SVG-20010904/DTD/svg10.dtd">
<svg version="1.0" xmlns="http://www.w3.org/2000/svg"
 width="864.000000pt" height="864.000000pt" viewBox="0 0 864.000000 864.000000"
 preserveAspectRatio="xMidYMid meet">
<metadata>
Created by potrace 1.14, written by Peter Selinger 2001-2017
</metadata>
<g transform="translate(0.000000,864.000000) scale(0.100000,-0.100000)"
fill="#000000" stroke="none">
<path d="M6578 8634 c-4 -3 -59 -11 -123 -18 -11 -1 -26 -5 -32 -9 -7 -5 -13
-6 -13 -4 0 3 -37 -6 -82 -20 -46 -13 -87 -26 -93 -27 -90 -25 -275 -127 -392
-216 -107 -81 -264 -238 -297 -298 -5 -9 -16 -23 -23 -30 -7 -7 -25 -34 -40
-60 -15 -26 -33 -53 -40 -60 -7 -8 -11 -17 -8 -22 3 -5 1 -10 -3 -12 -12 -5
-75 -143 -102 -223 -13 -38 -27 -79 -31 -90 -5 -11 -10 -31 -13 -45 -2 -14 -7
-36 -10 -50 -6 -24 -10 -47 -22 -117 -3 -18 -7 -63 -9 -100 -2 -38 -4 -68 -5
-68 -1 0 -1 -84 1 -215 0 -8 0 -80 0 -160 0 -80 0 -152 0 -160 0 -8 0 -80 0
-160 0 -80 0 -152 0 -160 0 -8 0 -80 0 -160 0 -80 0 -152 0 -160 0 -8 0 -80 0
-160 0 -80 0 -152 0 -160 0 -8 0 -80 0 -160 0 -80 0 -152 0 -160 0 -8 0 -80 0
-160 0 -80 0 -152 0 -160 0 -8 0 -80 0 -160 0 -80 0 -152 0 -160 0 -8 0 -80 0
-160 0 -80 0 -152 0 -160 0 -34 0 -317 -1 -340 0 -14 -2 -137 -4 -275 -3 -220
-6 -259 -26 -325 -66 -229 -226 -431 -415 -525 -22 -11 -42 -23 -45 -26 -8 -8
-159 -53 -215 -64 -37 -7 -212 -7 -240 -1 -116 28 -155 41 -227 75 -104 50
-106 52 -218 139 -96 76 -172 156 -303 322 -23 29 -124 186 -162 253 -22 37
-43 67 -47 67 -4 0 -8 5 -8 11 0 14 -90 127 -164 207 -67 73 -195 179 -287
239 -80 52 -239 136 -239 126 0 -3 -8 2 -19 11 -10 9 -22 16 -27 15 -5 -1 -22
3 -39 10 -16 7 -37 14 -45 16 -8 2 -16 4 -17 5 -2 2 -7 3 -12 4 -5 0 -13 4
-17 9 -4 4 -18 7 -31 7 -14 0 -32 4 -41 9 -9 5 -38 11 -65 14 -26 3 -51 8 -56
12 -5 3 -36 7 -69 9 -33 2 -64 6 -69 8 -20 10 -353 -5 -372 -16 -4 -3 -27 -7
-51 -11 -51 -8 -75 -13 -75 -15 0 -1 -8 -3 -19 -5 -104 -20 -351 -130 -473
-212 -94 -62 -226 -174 -283 -239 -25 -28 -48 -49 -52 -47 -5 2 -8 -1 -8 -7 0
-6 -6 -18 -12 -25 -62 -69 -190 -262 -194 -293 -2 -7 -9 -21 -17 -30 -8 -10
-22 -39 -32 -67 -10 -27 -22 -54 -25 -60 -7 -9 -29 -72 -36 -100 -2 -5 -14
-49 -28 -96 -13 -48 -27 -106 -30 -130 -3 -24 -9 -55 -12 -69 -3 -14 -7 -99
-9 -190 -4 -207 16 -364 70 -540 20 -65 77 -213 85 -220 3 -3 20 -34 38 -70
37 -74 48 -92 79 -137 13 -17 23 -36 23 -41 0 -6 7 -12 15 -16 8 -3 15 -10 15
-16 0 -6 6 -17 13 -24 6 -8 37 -42 67 -77 144 -166 296 -284 500 -390 66 -34
195 -85 239 -94 9 -2 28 -8 42 -13 15 -6 51 -15 80 -21 30 -6 65 -13 79 -16
141 -29 428 -24 580 12 36 8 76 17 90 19 24 4 62 17 105 34 11 5 44 16 73 26
28 10 52 22 52 27 0 4 4 6 8 3 12 -7 186 91 284 160 47 34 167 143 279 254
283 281 381 366 544 474 39 25 75 49 80 53 11 9 96 51 165 81 48 22 132 51
165 58 11 2 31 6 45 9 14 3 36 8 50 11 98 20 313 7 420 -26 19 -6 43 -13 54
-15 36 -8 274 -120 286 -134 3 -4 36 -26 74 -51 38 -24 74 -49 80 -55 6 -6 26
-21 45 -35 81 -57 231 -192 529 -477 18 -18 38 -33 43 -33 5 0 9 -4 9 -8 0 -4
13 -16 30 -25 16 -10 35 -23 42 -30 41 -39 226 -139 313 -171 28 -10 57 -20
65 -23 19 -8 24 -9 90 -27 80 -22 102 -26 225 -42 94 -12 286 -7 385 11 14 2
36 6 50 8 14 3 45 11 70 18 25 7 50 13 55 14 17 4 98 33 140 50 224 94 434
249 588 436 75 92 168 249 227 383 33 75 86 257 95 326 2 14 7 50 12 80 11 73
10 4727 -1 4810 -4 36 -10 69 -13 73 -2 4 -7 24 -9 45 -3 20 -8 46 -11 57 -4
11 -8 23 -9 28 -1 4 -2 8 -4 10 -1 1 -4 15 -6 30 -3 16 -16 53 -29 83 -13 30
-22 54 -19 54 21 0 -207 382 -245 410 -4 3 -35 35 -68 72 -34 36 -64 63 -67
60 -3 -3 -6 -1 -6 5 0 9 -45 49 -125 111 -85 66 -266 161 -375 197 -30 10 -64
21 -75 25 -25 10 -99 28 -145 36 -19 3 -46 8 -60 10 -32 6 -347 13 -352 8z"/>
<path d="M4338 1965 c-1 -2 -23 -6 -47 -10 -23 -3 -54 -10 -67 -15 -13 -5 -24
-7 -24 -4 0 4 -6 2 -12 -4 -7 -6 -17 -10 -21 -10 -18 0 -206 -84 -232 -104 -5
-4 -40 -28 -77 -52 -36 -25 -76 -53 -88 -63 -76 -62 -132 -119 -197 -198 -40
-49 -79 -97 -86 -105 -7 -8 -12 -17 -11 -20 1 -3 -9 -21 -20 -40 -32 -50 -77
-156 -92 -214 -79 -292 17 -598 256 -819 89 -83 265 -197 304 -197 9 0 16 -4
16 -9 0 -5 10 -11 23 -14 12 -3 69 -20 127 -37 129 -38 180 -44 350 -44 123
-1 178 4 250 19 82 17 97 21 175 48 260 90 484 280 590 502 64 132 79 200 78
360 0 98 -2 118 -22 183 -5 18 -11 36 -12 40 -6 25 -15 45 -49 117 -73 156
-191 303 -336 420 -27 22 -50 43 -52 47 -2 5 -7 8 -12 8 -4 0 -32 16 -61 36
-97 65 -264 141 -350 158 -13 3 -46 9 -73 14 -46 9 -220 15 -228 7z"/>
</g>
</svg>
