<svg xmlns="http://www.w3.org/2000/svg" width="49" height="54" viewBox="0 0 49 54" fill="none"><script xmlns=""/>
<path d="M39.5245 0C34.4002 0 30.2461 4.26436 30.2461 9.52472V31.0325C30.2461 33.9586 27.9354 36.3307 25.0849 36.3307C22.3269 36.3307 20.1661 33.9651 18.7563 31.5316C16.9984 28.4972 13.7722 26.4638 10.0835 26.4638C4.51452 26.4638 0 31.0982 0 36.815C0 42.5318 4.51452 47.1661 10.0835 47.1661C12.928 47.1661 15.4974 45.957 17.3306 44.0121C19.4885 41.7229 22.0452 39.3281 25.1484 39.3281C28.282 39.3281 30.855 41.8017 33.123 44.0214C34.788 45.651 37.0424 46.6514 39.5245 46.6514C44.6488 46.6514 48.8029 42.3871 48.8029 37.1267V9.52473C48.8029 4.26437 44.6488 0 39.5245 0Z" fill="#FFCB25"/>
<path d="M32.1229 48.208C32.1229 51.4068 29.0382 54 25.233 54C21.4279 54 18.3432 51.4068 18.3432 48.208C18.3432 45.0091 22.0768 41.6879 25.233 41.6879C28.3893 41.6879 32.1229 45.0091 32.1229 48.208Z" fill="#FFCB25"/>
</svg>